<mxfile host="app.diagrams.net" modified="2023-08-03T08:12:45.577Z" agent="Mozilla/5.0 (Macintosh; Intel Mac OS X 10_15_7) AppleWebKit/605.1.15 (KHTML, like Gecko) Version/16.5 Safari/605.1.15" etag="VwTy5pyhZ9wM7yHuR50x" version="21.6.6" type="github">
  <diagram name="Page-1" id="sLdZdmTSBGl3ww781dOq">
    <mxGraphModel dx="1194" dy="831" grid="1" gridSize="10" guides="1" tooltips="1" connect="1" arrows="1" fold="1" page="1" pageScale="1" pageWidth="850" pageHeight="1100" math="0" shadow="0">
      <root>
        <mxCell id="0" />
        <mxCell id="1" parent="0" />
        <mxCell id="eeAt-qHe6r2WFqpsgKY8-28" value="核心" style="swimlane;childLayout=stackLayout;resizeParent=1;resizeParentMax=0;horizontal=1;startSize=20;horizontalStack=0;html=1;fontSize=18;strokeColor=#808080;" vertex="1" parent="1">
          <mxGeometry x="80" y="320" width="790" height="660" as="geometry">
            <mxRectangle x="80" y="320" width="80" height="30" as="alternateBounds" />
          </mxGeometry>
        </mxCell>
        <mxCell id="eeAt-qHe6r2WFqpsgKY8-38" value="依赖" style="swimlane;startSize=20;horizontal=0;html=1;fontSize=18;strokeColor=#808080;" vertex="1" parent="eeAt-qHe6r2WFqpsgKY8-28">
          <mxGeometry y="20" width="790" height="370" as="geometry">
            <mxRectangle y="20" width="760" height="30" as="alternateBounds" />
          </mxGeometry>
        </mxCell>
        <mxCell id="eeAt-qHe6r2WFqpsgKY8-75" value="&lt;font size=&quot;4&quot;&gt;前端&lt;/font&gt;" style="swimlane;childLayout=stackLayout;resizeParent=1;resizeParentMax=0;startSize=20;html=1;strokeColor=#808080;" vertex="1" parent="eeAt-qHe6r2WFqpsgKY8-38">
          <mxGeometry x="30" y="10" width="370" height="350" as="geometry" />
        </mxCell>
        <mxCell id="eeAt-qHe6r2WFqpsgKY8-76" value="&lt;font size=&quot;4&quot;&gt;框架&lt;/font&gt;" style="swimlane;startSize=20;html=1;strokeColor=#808080;" vertex="1" parent="eeAt-qHe6r2WFqpsgKY8-75">
          <mxGeometry y="20" width="240" height="330" as="geometry" />
        </mxCell>
        <mxCell id="eeAt-qHe6r2WFqpsgKY8-79" value="&lt;font size=&quot;4&quot;&gt;Vue 3 / Element Plus&lt;/font&gt;" style="rounded=1;whiteSpace=wrap;html=1;fillColor=#60a917;strokeColor=#2D7600;fontColor=#ffffff;flipV=0;" vertex="1" parent="eeAt-qHe6r2WFqpsgKY8-76">
          <mxGeometry x="20" y="40" width="200" height="50" as="geometry" />
        </mxCell>
        <mxCell id="eeAt-qHe6r2WFqpsgKY8-83" value="&lt;font size=&quot;4&quot;&gt;Micro-Frontends&lt;/font&gt;" style="rounded=1;whiteSpace=wrap;html=1;fillColor=#60a917;strokeColor=#2D7600;fontColor=#ffffff;flipV=0;" vertex="1" parent="eeAt-qHe6r2WFqpsgKY8-76">
          <mxGeometry x="20" y="260" width="200" height="50" as="geometry" />
        </mxCell>
        <mxCell id="eeAt-qHe6r2WFqpsgKY8-85" value="&lt;font size=&quot;4&quot;&gt;TypeScript&lt;/font&gt;" style="rounded=1;whiteSpace=wrap;html=1;fillColor=#60a917;strokeColor=#2D7600;fontColor=#ffffff;flipV=0;" vertex="1" parent="eeAt-qHe6r2WFqpsgKY8-76">
          <mxGeometry x="20" y="187" width="200" height="50" as="geometry" />
        </mxCell>
        <mxCell id="eeAt-qHe6r2WFqpsgKY8-84" value="&lt;font size=&quot;4&quot;&gt;React /&amp;nbsp;&lt;/font&gt;&lt;font style=&quot;font-size: 18px;&quot;&gt;Ant Design&lt;/font&gt;" style="rounded=1;whiteSpace=wrap;html=1;fillColor=#60a917;strokeColor=#2D7600;fontColor=#ffffff;flipV=0;" vertex="1" parent="eeAt-qHe6r2WFqpsgKY8-76">
          <mxGeometry x="20" y="113" width="200" height="50" as="geometry" />
        </mxCell>
        <mxCell id="eeAt-qHe6r2WFqpsgKY8-77" value="&lt;font size=&quot;4&quot;&gt;构建工具&lt;/font&gt;" style="swimlane;startSize=20;html=1;strokeColor=#808080;" vertex="1" parent="eeAt-qHe6r2WFqpsgKY8-75">
          <mxGeometry x="240" y="20" width="130" height="330" as="geometry" />
        </mxCell>
        <mxCell id="eeAt-qHe6r2WFqpsgKY8-82" value="&lt;font size=&quot;4&quot;&gt;Yarn&lt;/font&gt;" style="rounded=1;whiteSpace=wrap;html=1;fillColor=#f0a30a;strokeColor=#BD7000;fontColor=#000000;" vertex="1" parent="eeAt-qHe6r2WFqpsgKY8-77">
          <mxGeometry x="7.5" y="150" width="115" height="50" as="geometry" />
        </mxCell>
        <mxCell id="eeAt-qHe6r2WFqpsgKY8-86" value="&lt;font size=&quot;4&quot;&gt;Webpack&lt;/font&gt;" style="rounded=1;whiteSpace=wrap;html=1;fillColor=#f0a30a;strokeColor=#BD7000;fontColor=#000000;" vertex="1" parent="eeAt-qHe6r2WFqpsgKY8-77">
          <mxGeometry x="7.5" y="250" width="115" height="50" as="geometry" />
        </mxCell>
        <mxCell id="eeAt-qHe6r2WFqpsgKY8-81" value="&lt;font size=&quot;4&quot;&gt;NPM&lt;/font&gt;" style="rounded=1;whiteSpace=wrap;html=1;fillColor=#f0a30a;strokeColor=#BD7000;fontColor=#000000;" vertex="1" parent="eeAt-qHe6r2WFqpsgKY8-77">
          <mxGeometry x="7.5" y="50" width="115" height="50" as="geometry" />
        </mxCell>
        <mxCell id="eeAt-qHe6r2WFqpsgKY8-87" value="&lt;font size=&quot;4&quot;&gt;后端&lt;/font&gt;" style="swimlane;childLayout=stackLayout;resizeParent=1;resizeParentMax=0;startSize=20;html=1;strokeColor=#808080;" vertex="1" parent="eeAt-qHe6r2WFqpsgKY8-38">
          <mxGeometry x="410" y="10" width="370" height="350" as="geometry" />
        </mxCell>
        <mxCell id="eeAt-qHe6r2WFqpsgKY8-88" value="&lt;font size=&quot;4&quot;&gt;框架&lt;/font&gt;" style="swimlane;startSize=20;html=1;strokeColor=#808080;" vertex="1" parent="eeAt-qHe6r2WFqpsgKY8-87">
          <mxGeometry y="20" width="240" height="330" as="geometry" />
        </mxCell>
        <mxCell id="eeAt-qHe6r2WFqpsgKY8-89" value="&lt;font size=&quot;4&quot;&gt;Spring 6&lt;/font&gt;" style="rounded=1;whiteSpace=wrap;html=1;fillColor=#60a917;strokeColor=#2D7600;fontColor=#ffffff;flipV=0;" vertex="1" parent="eeAt-qHe6r2WFqpsgKY8-88">
          <mxGeometry x="20" y="30" width="200" height="50" as="geometry" />
        </mxCell>
        <mxCell id="eeAt-qHe6r2WFqpsgKY8-90" value="&lt;font size=&quot;4&quot;&gt;MyBatis&lt;/font&gt;" style="rounded=1;whiteSpace=wrap;html=1;fillColor=#60a917;strokeColor=#2D7600;fontColor=#ffffff;flipV=0;" vertex="1" parent="eeAt-qHe6r2WFqpsgKY8-88">
          <mxGeometry x="20" y="270" width="200" height="50" as="geometry" />
        </mxCell>
        <mxCell id="eeAt-qHe6r2WFqpsgKY8-91" value="&lt;font size=&quot;4&quot;&gt;JPA&lt;/font&gt;" style="rounded=1;whiteSpace=wrap;html=1;fillColor=#60a917;strokeColor=#2D7600;fontColor=#ffffff;flipV=0;" vertex="1" parent="eeAt-qHe6r2WFqpsgKY8-88">
          <mxGeometry x="20" y="210" width="200" height="50" as="geometry" />
        </mxCell>
        <mxCell id="eeAt-qHe6r2WFqpsgKY8-92" value="&lt;font size=&quot;4&quot;&gt;Spring Boot 3&lt;/font&gt;" style="rounded=1;whiteSpace=wrap;html=1;fillColor=#60a917;strokeColor=#2D7600;fontColor=#ffffff;flipV=0;" vertex="1" parent="eeAt-qHe6r2WFqpsgKY8-88">
          <mxGeometry x="20" y="90" width="200" height="50" as="geometry" />
        </mxCell>
        <mxCell id="eeAt-qHe6r2WFqpsgKY8-98" value="&lt;font size=&quot;4&quot;&gt;Spring Cloud 2022.03&lt;/font&gt;" style="rounded=1;whiteSpace=wrap;html=1;fillColor=#60a917;strokeColor=#2D7600;fontColor=#ffffff;flipV=0;" vertex="1" parent="eeAt-qHe6r2WFqpsgKY8-88">
          <mxGeometry x="20" y="150" width="200" height="50" as="geometry" />
        </mxCell>
        <mxCell id="eeAt-qHe6r2WFqpsgKY8-93" value="&lt;font size=&quot;4&quot;&gt;构建工具&lt;/font&gt;" style="swimlane;startSize=20;html=1;strokeColor=#808080;" vertex="1" parent="eeAt-qHe6r2WFqpsgKY8-87">
          <mxGeometry x="240" y="20" width="130" height="330" as="geometry" />
        </mxCell>
        <mxCell id="eeAt-qHe6r2WFqpsgKY8-94" value="&lt;font size=&quot;4&quot;&gt;Gradle&lt;/font&gt;" style="rounded=1;whiteSpace=wrap;html=1;fillColor=#f0a30a;strokeColor=#BD7000;fontColor=#000000;" vertex="1" parent="eeAt-qHe6r2WFqpsgKY8-93">
          <mxGeometry x="7.5" y="220" width="115" height="50" as="geometry" />
        </mxCell>
        <mxCell id="eeAt-qHe6r2WFqpsgKY8-96" value="&lt;font size=&quot;4&quot;&gt;Maven&lt;/font&gt;" style="rounded=1;whiteSpace=wrap;html=1;fillColor=#f0a30a;strokeColor=#BD7000;fontColor=#000000;" vertex="1" parent="eeAt-qHe6r2WFqpsgKY8-93">
          <mxGeometry x="7.5" y="80" width="115" height="50" as="geometry" />
        </mxCell>
        <mxCell id="eeAt-qHe6r2WFqpsgKY8-29" value="SDK" style="swimlane;startSize=20;horizontal=0;html=1;fontSize=18;strokeColor=#808080;" vertex="1" parent="eeAt-qHe6r2WFqpsgKY8-28">
          <mxGeometry y="390" width="790" height="90" as="geometry" />
        </mxCell>
        <mxCell id="eeAt-qHe6r2WFqpsgKY8-67" value="&lt;font size=&quot;4&quot;&gt;JDK 17&lt;/font&gt;" style="rounded=1;whiteSpace=wrap;html=1;fillColor=#6d8764;strokeColor=#3A5431;fontColor=#ffffff;" vertex="1" parent="eeAt-qHe6r2WFqpsgKY8-29">
          <mxGeometry x="40" y="20" width="190" height="50" as="geometry" />
        </mxCell>
        <mxCell id="eeAt-qHe6r2WFqpsgKY8-68" value="&lt;font size=&quot;4&quot;&gt;Node.js&lt;/font&gt;" style="rounded=1;whiteSpace=wrap;html=1;fillColor=#6d8764;strokeColor=#3A5431;fontColor=#ffffff;" vertex="1" parent="eeAt-qHe6r2WFqpsgKY8-29">
          <mxGeometry x="580" y="20" width="190" height="50" as="geometry" />
        </mxCell>
        <mxCell id="eeAt-qHe6r2WFqpsgKY8-69" value="&lt;font size=&quot;4&quot;&gt;Kotlin&lt;/font&gt;" style="rounded=1;whiteSpace=wrap;html=1;fillColor=#6d8764;strokeColor=#3A5431;fontColor=#ffffff;" vertex="1" parent="eeAt-qHe6r2WFqpsgKY8-29">
          <mxGeometry x="310" y="20" width="190" height="50" as="geometry" />
        </mxCell>
        <mxCell id="eeAt-qHe6r2WFqpsgKY8-30" value="&lt;font size=&quot;4&quot;&gt;虚拟机&lt;/font&gt;" style="swimlane;startSize=20;horizontal=0;html=1;strokeColor=#808080;" vertex="1" parent="eeAt-qHe6r2WFqpsgKY8-28">
          <mxGeometry y="480" width="790" height="90" as="geometry" />
        </mxCell>
        <mxCell id="eeAt-qHe6r2WFqpsgKY8-64" value="&lt;font size=&quot;4&quot;&gt;JVM&lt;/font&gt;" style="rounded=1;whiteSpace=wrap;html=1;fillColor=#a0522d;strokeColor=#6D1F00;fontColor=#ffffff;" vertex="1" parent="eeAt-qHe6r2WFqpsgKY8-30">
          <mxGeometry x="40" y="20" width="190" height="50" as="geometry" />
        </mxCell>
        <mxCell id="eeAt-qHe6r2WFqpsgKY8-65" value="&lt;font size=&quot;4&quot;&gt;V8&lt;/font&gt;" style="rounded=1;whiteSpace=wrap;html=1;fillColor=#a0522d;strokeColor=#6D1F00;fontColor=#ffffff;" vertex="1" parent="eeAt-qHe6r2WFqpsgKY8-30">
          <mxGeometry x="580" y="20" width="190" height="50" as="geometry" />
        </mxCell>
        <mxCell id="eeAt-qHe6r2WFqpsgKY8-66" value="&lt;font style=&quot;font-size: 18px;&quot;&gt;GraalVM&lt;/font&gt;" style="rounded=1;whiteSpace=wrap;html=1;fillColor=#a0522d;strokeColor=#6D1F00;fontColor=#ffffff;" vertex="1" parent="eeAt-qHe6r2WFqpsgKY8-30">
          <mxGeometry x="310" y="20" width="190" height="50" as="geometry" />
        </mxCell>
        <mxCell id="eeAt-qHe6r2WFqpsgKY8-40" value="&lt;font style=&quot;font-size: 18px;&quot;&gt;容器&lt;/font&gt;" style="swimlane;startSize=20;horizontal=0;html=1;strokeColor=#808080;" vertex="1" parent="eeAt-qHe6r2WFqpsgKY8-28">
          <mxGeometry y="570" width="790" height="90" as="geometry" />
        </mxCell>
        <mxCell id="eeAt-qHe6r2WFqpsgKY8-41" value="&lt;font style=&quot;font-size: 18px;&quot;&gt;Kubernetes&lt;/font&gt;" style="rounded=1;whiteSpace=wrap;html=1;fillColor=#76608a;strokeColor=#432D57;fontColor=#ffffff;" vertex="1" parent="eeAt-qHe6r2WFqpsgKY8-40">
          <mxGeometry x="40" y="20" width="190" height="50" as="geometry" />
        </mxCell>
        <mxCell id="eeAt-qHe6r2WFqpsgKY8-63" value="&lt;font size=&quot;4&quot;&gt;Podman&lt;/font&gt;" style="rounded=1;whiteSpace=wrap;html=1;fillColor=#76608a;strokeColor=#432D57;fontColor=#ffffff;" vertex="1" parent="eeAt-qHe6r2WFqpsgKY8-40">
          <mxGeometry x="580" y="20" width="190" height="50" as="geometry" />
        </mxCell>
        <mxCell id="eeAt-qHe6r2WFqpsgKY8-62" value="&lt;font size=&quot;4&quot;&gt;Docker&lt;/font&gt;" style="rounded=1;whiteSpace=wrap;html=1;fillColor=#76608a;strokeColor=#432D57;fontColor=#ffffff;" vertex="1" parent="eeAt-qHe6r2WFqpsgKY8-40">
          <mxGeometry x="310" y="20" width="190" height="50" as="geometry" />
        </mxCell>
        <mxCell id="eeAt-qHe6r2WFqpsgKY8-99" value="&lt;font style=&quot;font-size: 24px;&quot;&gt;本地 / 远程开发&lt;/font&gt;" style="rounded=0;whiteSpace=wrap;html=1;strokeColor=#808080;" vertex="1" parent="1">
          <mxGeometry x="80" y="270" width="790" height="40" as="geometry" />
        </mxCell>
      </root>
    </mxGraphModel>
  </diagram>
</mxfile>
